<svg width="15" height="15" viewBox="0 0 15 15" fill="none" xmlns="http://www.w3.org/2000/svg">
<path d="M13.9676 5.59856L9.65901 4.97238L7.73294 1.06763C7.68033 0.960723 7.59379 0.874177 7.48688 0.821571C7.21875 0.689206 6.89293 0.79951 6.75887 1.06763L4.8328 4.97238L0.524176 5.59856C0.405388 5.61553 0.296781 5.67153 0.213629 5.75638C0.113103 5.8597 0.0577089 5.99871 0.0596181 6.14285C0.0615273 6.287 0.120584 6.42449 0.223811 6.52511L3.34116 9.5644L2.60467 13.8561C2.5874 13.9559 2.59845 14.0586 2.63656 14.1524C2.67467 14.2463 2.73833 14.3276 2.8203 14.3872C2.90228 14.4467 2.9993 14.4821 3.10036 14.4893C3.20142 14.4965 3.30247 14.4752 3.39207 14.4279L7.2459 12.4017L11.0997 14.4279C11.205 14.4839 11.3271 14.5026 11.4442 14.4822C11.7395 14.4313 11.938 14.1513 11.8871 13.8561L11.1507 9.5644L14.268 6.52511C14.3528 6.44196 14.4088 6.33335 14.4258 6.21456C14.4716 5.91759 14.2646 5.64268 13.9676 5.59856Z" fill="#808080"/>
</svg>
