<svg width="14" height="18" viewBox="0 0 14 18" fill="none" xmlns="http://www.w3.org/2000/svg">
<path d="M7.00001 0C5.1773 0.00215029 3.42987 0.727169 2.14102 2.01602C0.852176 3.30486 0.127158 5.0523 0.125007 6.875C0.122824 8.36452 0.60937 9.81361 1.51001 11C1.51001 11 1.69751 11.2469 1.72813 11.2825L7.00001 17.5L12.2744 11.2794C12.3019 11.2463 12.49 11 12.49 11L12.4906 10.9981C13.3908 9.81226 13.8771 8.36383 13.875 6.875C13.8729 5.0523 13.1478 3.30486 11.859 2.01602C10.5701 0.727169 8.82271 0.00215029 7.00001 0ZM7.00001 9.375C6.50556 9.375 6.02221 9.22838 5.61108 8.95367C5.19996 8.67897 4.87953 8.28852 4.69031 7.83171C4.50109 7.37489 4.45158 6.87223 4.54804 6.38727C4.64451 5.90232 4.88261 5.45686 5.23224 5.10723C5.58187 4.7576 6.02733 4.5195 6.51228 4.42304C6.99724 4.32657 7.4999 4.37608 7.95672 4.5653C8.41353 4.75452 8.80398 5.07495 9.07868 5.48607C9.35339 5.8972 9.50001 6.38055 9.50001 6.875C9.49918 7.53779 9.23552 8.17319 8.76686 8.64185C8.2982 9.11052 7.6628 9.37417 7.00001 9.375Z" fill="black"/>
</svg>
