<svg width="15" height="15" viewBox="0 0 15 15" fill="none" xmlns="http://www.w3.org/2000/svg">
<path d="M14.4759 5.59856L10.1672 4.97238L8.24117 1.06763C8.18856 0.960723 8.10202 0.874177 7.99511 0.821571C7.72699 0.689206 7.40117 0.79951 7.2671 1.06763L5.34103 4.97238L1.03241 5.59856C0.91362 5.61553 0.805013 5.67153 0.721861 5.75638C0.621335 5.8597 0.565941 5.99871 0.56785 6.14285C0.569759 6.287 0.628816 6.42449 0.732043 6.52511L3.84939 9.5644L3.1129 13.8561C3.09563 13.9559 3.10668 14.0586 3.14479 14.1524C3.18291 14.2463 3.24656 14.3276 3.32854 14.3872C3.41051 14.4467 3.50753 14.4821 3.60859 14.4893C3.70965 14.4965 3.81071 14.4752 3.9003 14.4279L7.75414 12.4017L11.608 14.4279C11.7132 14.4839 11.8354 14.5026 11.9525 14.4822C12.2477 14.4313 12.4463 14.1513 12.3954 13.8561L11.6589 9.5644L14.7762 6.52511C14.8611 6.44196 14.9171 6.33335 14.9341 6.21456C14.9799 5.91759 14.7728 5.64268 14.4759 5.59856Z" fill="white"/>
</svg>
